<svg width="123" height="96" viewBox="0 0 123 96" fill="none" xmlns="http://www.w3.org/2000/svg">
<path d="M20.5937 92C20.5937 92.9665 21.3772 93.75 22.3437 93.75H38.4563C39.4228 93.75 40.2063 92.9665 40.2063 92V5.23944C40.2063 4.27294 39.4228 3.48944 38.4563 3.48944H4C3.0335 3.48944 2.25 4.27294 2.25 5.23944V18.7493C2.25 19.7158 3.0335 20.4993 4 20.4993H20.5937V92ZM52.8016 92C52.8016 92.9665 53.5851 93.75 54.5516 93.75H118.507C119.473 93.75 120.257 92.9665 120.257 92V78.3662C120.257 77.3997 119.473 76.6162 118.507 76.6162H81.938L101.988 57.5731L101.993 57.5677C106.01 53.7183 109.121 50.1934 111.28 46.9967C113.423 43.8263 114.926 40.7598 115.733 37.8013L115.736 37.7887C116.517 34.8382 116.91 31.8784 116.91 28.9127C116.91 23.4894 115.55 18.715 112.766 14.6688C110.074 10.6356 106.198 7.58746 101.231 5.49298C96.3362 3.31123 90.635 2.25 84.1741 2.25C76.8563 2.25 70.1675 3.56951 64.1356 6.23978C58.1848 8.82809 53.3884 12.5206 49.8021 17.3315C49.2306 18.0982 49.3802 19.1816 50.1381 19.7646L61.417 28.4406C62.1692 29.0193 63.2456 28.8928 63.8433 28.1557C66.1563 25.3029 68.8672 23.2102 71.9805 21.842C75.2073 20.4604 78.8091 19.7556 82.8107 19.7556C87.8894 19.7556 91.4341 20.8321 93.7251 22.7065L93.7502 22.7267C95.9923 24.4932 97.1734 27.0075 97.1734 30.5239C97.1734 31.911 96.9541 33.4485 96.4914 35.1452C96.4864 35.1635 96.4817 35.1819 96.4773 35.2003C96.1289 36.6639 95.3353 38.3679 94.0059 40.323C92.7018 42.2408 90.6544 44.5382 87.8074 47.2225L87.8028 47.2268L53.3465 79.9479C52.9986 80.2783 52.8016 80.7371 52.8016 81.2169V92Z" stroke="#1D437A" stroke-width="3.5" stroke-linejoin="round"/>
</svg>
