<svg width="315" height="96" viewBox="0 0 315 96" fill="none" xmlns="http://www.w3.org/2000/svg">
<mask id="path-1-outside-1_149_325" maskUnits="userSpaceOnUse" x="0" y="0" width="315" height="96" fill="black">
<rect fill="white" width="315" height="96"/>
<path d="M4 76.4778V63.7667L55.6544 44.4556V51.5444L4 32.2333V19.5222L60.4281 41.4V54.6L4 76.4778Z"/>
<path d="M72.527 90.7778V80.1445L106.555 47.8778C109.411 45.1889 111.533 42.8259 112.92 40.7889C114.307 38.7519 115.205 36.8778 115.613 35.1667C116.103 33.3741 116.347 31.7037 116.347 30.1556C116.347 26.2444 115.001 23.2296 112.308 21.1111C109.615 18.9111 105.658 17.8111 100.435 17.8111C96.2733 17.8111 92.4788 18.5444 89.0515 20.0111C85.7058 21.4778 82.8089 23.7185 80.3608 26.7333L69.2221 18.1778C72.5678 13.6963 77.0559 10.2333 82.6865 7.78889C88.3986 5.26296 94.7636 4 101.781 4C107.983 4 113.369 5.01852 117.939 7.05555C122.59 9.01111 126.14 11.8222 128.588 15.4889C131.118 19.1556 132.382 23.5148 132.382 28.5667C132.382 31.337 132.015 34.1074 131.281 36.8778C130.546 39.5667 129.159 42.4185 127.119 45.4333C125.079 48.4482 122.1 51.8296 118.184 55.5778L88.9291 83.3222L85.6241 77.3333H135.687V90.7778H72.527Z"/>
<path d="M173.269 92C167.23 92 161.314 91.1444 155.521 89.4333C149.808 87.6407 144.994 85.1963 141.077 82.1L147.809 69.7556C150.91 72.2815 154.664 74.3185 159.07 75.8667C163.558 77.4148 168.21 78.1889 173.024 78.1889C178.655 78.1889 183.061 77.0074 186.244 74.6445C189.508 72.2815 191.14 69.1037 191.14 65.1111C191.14 62.4222 190.446 60.0593 189.059 58.0222C187.753 55.9852 185.387 54.437 181.96 53.3778C178.614 52.3185 174.003 51.7889 168.128 51.7889H147.442L151.848 5.22222H202.156V18.5444H157.724L166.047 10.9667L162.742 45.8L154.419 38.3445H171.678C180.164 38.3445 186.978 39.4852 192.119 41.7667C197.342 43.9667 201.136 47.063 203.503 51.0556C205.951 54.9667 207.175 59.4482 207.175 64.5C207.175 69.4704 205.951 74.0333 203.503 78.1889C201.055 82.3445 197.301 85.6852 192.242 88.2111C187.264 90.737 180.94 92 173.269 92Z"/>
<path d="M227.153 90.7778L285.662 5.22222H297.658L239.149 90.7778H227.153ZM234.253 51.3C230.254 51.3 226.705 50.3222 223.604 48.3667C220.503 46.4111 218.096 43.6815 216.382 40.1778C214.668 36.6741 213.811 32.5593 213.811 27.8333C213.811 23.1074 214.668 18.9926 216.382 15.4889C218.096 11.9852 220.503 9.25556 223.604 7.3C226.705 5.34445 230.254 4.36667 234.253 4.36667C238.415 4.36667 242.005 5.34445 245.024 7.3C248.125 9.25556 250.533 11.9852 252.246 15.4889C253.96 18.9926 254.817 23.1074 254.817 27.8333C254.817 32.5593 253.96 36.6741 252.246 40.1778C250.533 43.6815 248.125 46.4111 245.024 48.3667C242.005 50.3222 238.415 51.3 234.253 51.3ZM234.375 42.7444C237.639 42.7444 240.169 41.4815 241.964 38.9556C243.841 36.3482 244.78 32.6407 244.78 27.8333C244.78 23.0259 243.841 19.3593 241.964 16.8333C240.169 14.2259 237.639 12.9222 234.375 12.9222C231.111 12.9222 228.5 14.2259 226.541 16.8333C224.665 19.4407 223.726 23.1074 223.726 27.8333C223.726 32.5593 224.665 36.2259 226.541 38.8333C228.5 41.4407 231.111 42.7444 234.375 42.7444ZM290.436 91.6333C286.438 91.6333 282.888 90.6556 279.787 88.7C276.686 86.7445 274.279 84.0148 272.565 80.5111C270.852 77.0074 269.995 72.8926 269.995 68.1667C269.995 63.4407 270.852 59.3259 272.565 55.8222C274.279 52.3185 276.686 49.5889 279.787 47.6333C282.888 45.6778 286.438 44.7 290.436 44.7C294.598 44.7 298.188 45.6778 301.208 47.6333C304.309 49.5889 306.716 52.3185 308.43 55.8222C310.143 59.3259 311 63.4407 311 68.1667C311 72.8926 310.143 77.0074 308.43 80.5111C306.716 84.0148 304.309 86.7445 301.208 88.7C298.188 90.6556 294.598 91.6333 290.436 91.6333ZM290.436 83.0778C293.7 83.0778 296.271 81.7741 298.148 79.1667C300.024 76.5593 300.963 72.8926 300.963 68.1667C300.963 63.4407 300.024 59.7741 298.148 57.1667C296.271 54.5593 293.7 53.2556 290.436 53.2556C287.254 53.2556 284.683 54.5593 282.725 57.1667C280.848 59.6926 279.909 63.3593 279.909 68.1667C279.909 72.9741 280.848 76.6815 282.725 79.2889C284.683 81.8148 287.254 83.0778 290.436 83.0778Z"/>
</mask>
<path d="M4 76.4778V63.7667L55.6544 44.4556V51.5444L4 32.2333V19.5222L60.4281 41.4V54.6L4 76.4778Z" stroke="#1D437A" stroke-width="7" mask="url(#path-1-outside-1_149_325)"/>
<path d="M72.527 90.7778V80.1445L106.555 47.8778C109.411 45.1889 111.533 42.8259 112.92 40.7889C114.307 38.7519 115.205 36.8778 115.613 35.1667C116.103 33.3741 116.347 31.7037 116.347 30.1556C116.347 26.2444 115.001 23.2296 112.308 21.1111C109.615 18.9111 105.658 17.8111 100.435 17.8111C96.2733 17.8111 92.4788 18.5444 89.0515 20.0111C85.7058 21.4778 82.8089 23.7185 80.3608 26.7333L69.2221 18.1778C72.5678 13.6963 77.0559 10.2333 82.6865 7.78889C88.3986 5.26296 94.7636 4 101.781 4C107.983 4 113.369 5.01852 117.939 7.05555C122.59 9.01111 126.14 11.8222 128.588 15.4889C131.118 19.1556 132.382 23.5148 132.382 28.5667C132.382 31.337 132.015 34.1074 131.281 36.8778C130.546 39.5667 129.159 42.4185 127.119 45.4333C125.079 48.4482 122.1 51.8296 118.184 55.5778L88.9291 83.3222L85.6241 77.3333H135.687V90.7778H72.527Z" stroke="#1D437A" stroke-width="7" mask="url(#path-1-outside-1_149_325)"/>
<path d="M173.269 92C167.23 92 161.314 91.1444 155.521 89.4333C149.808 87.6407 144.994 85.1963 141.077 82.1L147.809 69.7556C150.91 72.2815 154.664 74.3185 159.07 75.8667C163.558 77.4148 168.21 78.1889 173.024 78.1889C178.655 78.1889 183.061 77.0074 186.244 74.6445C189.508 72.2815 191.14 69.1037 191.14 65.1111C191.14 62.4222 190.446 60.0593 189.059 58.0222C187.753 55.9852 185.387 54.437 181.96 53.3778C178.614 52.3185 174.003 51.7889 168.128 51.7889H147.442L151.848 5.22222H202.156V18.5444H157.724L166.047 10.9667L162.742 45.8L154.419 38.3445H171.678C180.164 38.3445 186.978 39.4852 192.119 41.7667C197.342 43.9667 201.136 47.063 203.503 51.0556C205.951 54.9667 207.175 59.4482 207.175 64.5C207.175 69.4704 205.951 74.0333 203.503 78.1889C201.055 82.3445 197.301 85.6852 192.242 88.2111C187.264 90.737 180.94 92 173.269 92Z" stroke="#1D437A" stroke-width="7" mask="url(#path-1-outside-1_149_325)"/>
<path d="M227.153 90.7778L285.662 5.22222H297.658L239.149 90.7778H227.153ZM234.253 51.3C230.254 51.3 226.705 50.3222 223.604 48.3667C220.503 46.4111 218.096 43.6815 216.382 40.1778C214.668 36.6741 213.811 32.5593 213.811 27.8333C213.811 23.1074 214.668 18.9926 216.382 15.4889C218.096 11.9852 220.503 9.25556 223.604 7.3C226.705 5.34445 230.254 4.36667 234.253 4.36667C238.415 4.36667 242.005 5.34445 245.024 7.3C248.125 9.25556 250.533 11.9852 252.246 15.4889C253.96 18.9926 254.817 23.1074 254.817 27.8333C254.817 32.5593 253.96 36.6741 252.246 40.1778C250.533 43.6815 248.125 46.4111 245.024 48.3667C242.005 50.3222 238.415 51.3 234.253 51.3ZM234.375 42.7444C237.639 42.7444 240.169 41.4815 241.964 38.9556C243.841 36.3482 244.78 32.6407 244.78 27.8333C244.78 23.0259 243.841 19.3593 241.964 16.8333C240.169 14.2259 237.639 12.9222 234.375 12.9222C231.111 12.9222 228.5 14.2259 226.541 16.8333C224.665 19.4407 223.726 23.1074 223.726 27.8333C223.726 32.5593 224.665 36.2259 226.541 38.8333C228.5 41.4407 231.111 42.7444 234.375 42.7444ZM290.436 91.6333C286.438 91.6333 282.888 90.6556 279.787 88.7C276.686 86.7445 274.279 84.0148 272.565 80.5111C270.852 77.0074 269.995 72.8926 269.995 68.1667C269.995 63.4407 270.852 59.3259 272.565 55.8222C274.279 52.3185 276.686 49.5889 279.787 47.6333C282.888 45.6778 286.438 44.7 290.436 44.7C294.598 44.7 298.188 45.6778 301.208 47.6333C304.309 49.5889 306.716 52.3185 308.43 55.8222C310.143 59.3259 311 63.4407 311 68.1667C311 72.8926 310.143 77.0074 308.43 80.5111C306.716 84.0148 304.309 86.7445 301.208 88.7C298.188 90.6556 294.598 91.6333 290.436 91.6333ZM290.436 83.0778C293.7 83.0778 296.271 81.7741 298.148 79.1667C300.024 76.5593 300.963 72.8926 300.963 68.1667C300.963 63.4407 300.024 59.7741 298.148 57.1667C296.271 54.5593 293.7 53.2556 290.436 53.2556C287.254 53.2556 284.683 54.5593 282.725 57.1667C280.848 59.6926 279.909 63.3593 279.909 68.1667C279.909 72.9741 280.848 76.6815 282.725 79.2889C284.683 81.8148 287.254 83.0778 290.436 83.0778Z" stroke="#1D437A" stroke-width="7" mask="url(#path-1-outside-1_149_325)"/>
</svg>
