<svg width="658" height="2590" viewBox="0 0 658 2590" fill="none" xmlns="http://www.w3.org/2000/svg">
<path fill-rule="evenodd" clip-rule="evenodd" d="M481.686 959.379C473.368 961.203 475.893 935.783 478.22 930.849C479.804 943.881 478.864 925.487 481.686 926.076C479.408 944.095 479.012 943.291 481.686 959.379Z" fill="#F05424"/>
<path fill-rule="evenodd" clip-rule="evenodd" d="M504.312 838.18C506.59 838.18 505.847 842.31 507.778 842.953C506.342 849.013 500.599 861.455 497.331 857.164C503.768 853.679 495.351 840.701 504.312 838.18Z" fill="#F05424"/>
<path fill-rule="evenodd" clip-rule="evenodd" d="M502.53 752.591C502.53 764.872 500.797 764.335 504.313 771.629C503.974 773.147 503.334 774.568 502.436 775.791C501.538 777.013 500.404 778.009 499.114 778.708C499.51 769.001 497.381 755.862 502.53 752.591Z" fill="#F05424"/>
<path fill-rule="evenodd" clip-rule="evenodd" d="M543.696 2563.98C536.221 2567.07 537.111 2555.26 529.636 2558.36C525.899 2534.67 514.108 2542.44 501.561 2536C477.668 2559.94 433.174 2544.27 425.077 2499.62C423.074 2499.62 422.896 2503.22 420.627 2502.4C418.358 2493.43 414.754 2486.86 415.956 2471.64L411.239 2471.64C404.432 2435.7 398.87 2397.55 393.842 2358.45C380.494 2344.55 366.746 2331.35 359.582 2304.83C359.004 2297.18 363.231 2299.33 361.94 2290.3C348.592 2274.89 333.821 2262.19 327.547 2232.32C328.351 2231.13 328.973 2229.72 329.371 2228.18C329.769 2226.63 329.936 2224.99 329.861 2223.35C329.193 2227.26 328.659 2231.43 325.411 2230.86C333.554 2291.94 344.277 2347.02 359.449 2390.6C360.116 2390.16 360.784 2389.78 361.54 2389.21C361.261 2390.57 360.841 2391.87 360.294 2393.06C363.282 2401.72 366.579 2410.15 370.172 2418.33C369.657 2432.21 372.62 2445.9 378.537 2456.98C381.651 2455.66 382.541 2441.82 385.7 2448.71C389.17 2462.73 393.397 2474.98 396.423 2490.14C385.967 2509.09 376 2487.62 376.134 2465.26C376.134 2468.67 375.778 2471.57 373.776 2470.81C366.034 2450.1 360.428 2424.58 353.709 2401.34C353.175 2401.72 352.641 2402.09 352.063 2402.41C351.307 2408.73 348.948 2411.06 347.614 2415.74C341.97 2416.97 336.202 2415.27 331.374 2410.94C330.124 2411.46 328.971 2412.36 327.995 2413.58C327.018 2414.81 326.243 2416.32 325.723 2418.01C276.513 2427.3 240.74 2391.61 217.915 2355.61C206.881 2394.33 186.191 2332.05 165.146 2330.34C163.859 2335.66 163.448 2341.32 163.945 2346.89C162.87 2346.44 161.723 2346.46 160.658 2346.96C159.593 2347.46 158.66 2348.4 157.983 2349.67C156.781 2346.01 156.87 2339.38 154.423 2338.62C138.806 2330.47 137.916 2305.9 130.575 2272.42C119.896 2223.92 102.811 2162.78 94.98 2112.31C94.2236 2073.65 81.6319 2050.85 84.2126 2012.89C77.5386 2016.68 84.6575 1999.38 79.4518 1996.35C76.7377 1995.59 75.0024 1997.04 74.691 2001.9C76.8711 2017.13 84.1236 2036.2 80.6531 2051.55C89.3293 2064.56 88.128 2105.55 93.7787 2128.86C101.209 2159.68 108.817 2199.47 115.224 2233.77C111.976 2231.75 112.822 2239.26 110.464 2239.26C104.991 2186.65 91.1535 2153.3 83.0557 2106.63C84.4795 2106.31 85.8588 2105.8 85.4139 2101.13C85.0579 2093.68 80.3861 2096.2 79.4518 2090.08C82.3438 2084.14 76.9601 2073.97 77.0491 2065.25C78.4729 2064.81 80.4751 2065.7 80.6531 2062.48C80.2082 2043.08 72.7778 2053.25 71.1315 2040.43C72.9112 2039.93 75.5808 2041.38 75.8923 2037.65C73.5341 2029.76 66.2372 2013.08 67.5275 1999C67.5275 2005 68.5064 2007.78 71.1315 2007.27C71.1315 2003.61 73.1782 2004.75 73.4896 2001.78C73.0002 1996.47 69.0403 1999.57 69.9302 1990.72C73.5341 1989.84 79.1848 1993.76 79.4518 1985.17C77.1007 1969.72 75.5099 1954.06 74.691 1938.3C71.3095 1940.57 71.6209 1934.38 68.7289 1935.52C69.6095 1938.75 69.8511 1942.25 69.4276 1945.66C69.004 1949.07 67.9315 1952.24 66.3262 1954.85C73.2672 1959.08 68.9958 1973.8 74.691 1982.45C72.3328 1981.63 72.3328 1986.11 71.1315 1987.94C67.3051 1977.4 67.1271 1960.03 63.9681 1954.85C64.7689 1962.24 61.4764 1960.15 60.3641 1963.12C60.7645 1952.07 58.2284 1947.77 59.2073 1935.52C63.6566 1933.82 58.2284 1958.39 65.1249 1949.29C61.3874 1943.73 65.1249 1926.8 62.7667 1913.41C57.65 1903.69 53.2451 1912.53 48.4398 1899.65C51.1095 1893.33 53.1117 1900.59 56.8046 1899.65C52.7557 1869.39 55.1139 1829.22 48.4399 1803.01C48.4398 1808 47.283 1809.32 44.8804 1808.5C45.5923 1802.82 43.3676 1790.44 46.0817 1789.24C47.283 1792.9 47.194 1799.47 49.6412 1800.23C50.976 1779.2 45.6368 1758.42 50.8425 1745.09C42.8782 1737.83 51.2874 1709.4 44.8804 1698.16C47.1051 1689.89 53.4231 1701.63 54.402 1695.38C51.9548 1690.9 46.5711 1693.23 44.8804 1687.11C45.9037 1676.69 42.0328 1655.08 49.6412 1648.45C46.1262 1651.61 45.1918 1650.03 43.6791 1642.96C46.2152 1641.19 44.7914 1625.9 43.6791 1623.57C45.7258 1622.49 46.7491 1627.67 47.2385 1623.57L47.2385 1609.8C44.7393 1607.08 41.8485 1605.18 38.7722 1604.23C35.6959 1603.28 32.5098 1603.3 29.4412 1604.3C27.6169 1592.62 36.0707 1604.87 34.2465 1593.25C38.6958 1596.28 41.4989 1601.59 43.7681 1590.47C43.7681 1586.11 40.7425 1588.32 41.3654 1582.2C42.1218 1582.2 42.7892 1581.82 42.5667 1579.48C43.7681 1579.48 43.9905 1577.21 44.9694 1576.7C48.7068 1585.1 45.6813 1593.94 50.9315 1596.03C50.9315 1591.86 50.4866 1585.8 52.1328 1584.97C52.1328 1591.29 57.1606 1586.11 59.2963 1587.75C62.4108 1613.9 60.0971 1629.76 66.4152 1648.45C66.9046 1646.05 67.3051 1643.78 67.6165 1641.69L64.9469 1613.78C64.3224 1612.38 63.6233 1611.05 62.8557 1609.8C63.4259 1609.99 64.0208 1609.99 64.591 1609.8L62.3218 1585.61C62.3218 1585.61 61.8769 1585.61 61.6544 1585.23C61.498 1583.78 61.498 1582.31 61.6544 1580.87L56.7156 1527.56C55.5588 1540.19 58.4064 1551.18 60.0082 1565.46C55.1584 1562.24 52.0883 1569.25 55.2474 1576.51C49.5522 1582.83 47.461 1566.41 40.9205 1573.73C42.9672 1561.42 38.3843 1544.99 44.5244 1546.13C42.1273 1540.31 40.7652 1533.75 40.5559 1527.01C40.3466 1520.28 41.2964 1513.57 43.3231 1507.48C46.4822 1511.27 46.6156 1521.94 49.2852 1526.8C53.7346 1512.97 45.8593 1496.42 48.0839 1488.15C49.3672 1491.23 50.9723 1494.02 52.8447 1496.42C53.4231 1495.92 53.6011 1494.53 53.7346 1492.89L52.2663 1476.53C51.1988 1476.77 50.2065 1477.46 49.4146 1478.51C48.6227 1479.55 48.0668 1480.91 47.817 1482.4C46.3487 1473.75 45.1918 1462.76 40.6535 1468.57C43.946 1460.1 36.5156 1455.11 40.6535 1446.53C40.6535 1455.49 42.2108 1461.37 45.4588 1463.07C42.8337 1454.86 45.1918 1452.97 46.6156 1452.02C46.6156 1439.7 43.9015 1448.55 41.8548 1443.75C41.8548 1429.91 37.4055 1430.23 39.4967 1410.65C39.4967 1415.58 40.6535 1416.97 43.0562 1416.14C43.0562 1423.09 40.787 1424.8 44.2575 1427.2C43.9905 1415.89 45.7703 1419.56 47.9504 1422.52C45.9037 1394.48 44.124 1366.33 42.6112 1338.08C41.6112 1336.39 41.0053 1334.31 40.8778 1332.11C40.7502 1329.92 41.1072 1327.72 41.8993 1325.82C31.5769 1120.61 35.0029 911.421 40.6981 694.525C40.3866 686.693 38.5624 681.324 41.143 677.471L41.143 676.397L37.0941 676.397C37.8505 692.061 32.6447 693.072 37.0941 703.999C32.6447 708.294 36.3822 694.651 33.5346 695.725C33.5346 716.758 38.6958 760.781 31.132 784.151C30.8953 777.639 31.2996 771.113 32.3333 764.76C30.4201 768.613 26.1932 767.16 25.1698 773.098C27.2165 773.098 28.1954 775.245 28.7293 778.593C22.5447 774.487 25.2588 796.973 27.5725 797.92C28.0619 792.741 25.9262 781.245 29.9306 784.151C29.9306 794.13 30.598 805.942 27.5725 808.973C27.5725 804.615 27.5725 799.373 25.1698 800.699C24.191 814.342 23.6126 821.227 26.3712 831.08C21.9218 840.112 23.5681 854.323 20.409 855.902C24.8584 874.851 19.2077 897.273 20.409 905.61C19.8751 902.136 18.8518 899.926 16.8051 900.052C19.0742 905.295 16.0932 905.042 16.8051 913.821C17.5148 913.81 18.2123 913.557 18.8393 913.084C19.4663 912.612 20.0045 911.933 20.409 911.105C21.8773 926.201 20.409 923.169 18.0064 933.149C25.3923 936.37 22.0108 964.35 22.7672 982.857C18.3178 986.899 22.7672 970.54 18.0064 974.583C22.4557 988.162 12.7562 988.92 12.0443 999.405C17.9174 993.847 18.8073 1016.59 19.2077 1021.51C19.2297 1019.55 19.6466 1017.65 20.409 1016.02C22.6337 1045.64 14.3134 1049.18 22.7672 1071.22C19.7416 1074.19 18.6293 1059.28 16.8051 1068.44C18.8518 1067.87 19.8306 1097.75 16.8051 1098.82C17.8729 1093.14 13.735 1086.19 13.2456 1093.26C21.7438 1116.57 16.4936 1142.66 19.2077 1176.07C16.8496 1176.89 16.8495 1172.34 15.6037 1170.57C15.6037 1174.11 14.091 1174.36 14.4469 1178.85C14.4469 1182.07 16.3156 1181.82 18.0064 1181.56C20.8984 1234.68 16.0487 1261.59 20.409 1297.53C11.5103 1304.54 21.4769 1335.99 21.5658 1341.74C20.0453 1343.1 18.8147 1345.02 18.0064 1347.3C18.3623 1369.09 24.6359 1386.71 18.0064 1402.5C21.2989 1483.92 22.4557 1596.41 28.7293 1667.46C34.6024 1733.78 35.0918 1805.28 45.4588 1868.95L50.2196 1868.95C50.6645 1882.15 44.4799 1864.21 44.2575 1877.22C47.4165 1880.89 52.0438 1881.27 52.5777 1891.06C48.1284 1892.51 49.6857 1881.27 45.4588 1882.78C43.8125 1917.71 52.1328 1948.78 56.1817 1979.35C56.1817 1976.01 56.5376 1973.04 58.5843 1973.8C56.2262 1983.71 59.1183 1988.58 58.5843 2001.46C60.9425 2006.01 60.0971 2001.46 63.3451 2001.46C61.5209 2010.81 64.235 2013.4 60.9425 2018.01C68.4174 2058.69 76.7377 2097.4 84.791 2136.69C81.9879 2140.23 82.5663 2136.31 78.8289 2139.47C19.9641 1963.75 -1.83771 1671.38 0.120008 1402.5C2.03324 1140.38 6.17115 881.483 33.5346 676.524C38.2071 670.803 41.1536 662.754 41.7659 654.038C43.1007 604.33 44.569 554.306 45.9483 503.714C46.9271 467.333 48.5289 434.236 50.3976 402.277C49.3743 272.48 52.3998 140.725 66.8602 38.9089C72.3797 31.5264 76.1299 21.8732 77.5831 11.3073C88.306 15.097 97.5162 -0.94602 109.796 3.03315C119.362 6.12806 125.903 25.266 132.443 30.6347C133.659 31.6291 134.982 32.3333 136.359 32.719C142.023 19.8425 149.471 8.73318 158.25 0.0645581C168.35 8.97032 180.007 13.518 191.041 2.59103C195.491 4.80168 196.336 12.76 198.828 18.1287C214.311 11.181 228.727 27.4135 233.399 46.3619C254.355 60.7627 267.926 87.4169 278.649 118.745C297.826 128.282 310.773 148.241 319.227 175.59L320.117 175.59C323.543 172.748 326.88 169.779 330.172 166.684C331.863 142.809 338.448 116.155 343.921 86.7221C350.194 52.8675 352.819 -0.314391 372.041 0.00141691C377.602 36.6351 396.423 49.52 403.186 83.943C409.326 83.943 411.818 90.8908 415.689 95.1226C413.864 95.5647 413.998 99.5439 414.087 103.397C415.6 103.397 417.112 103.776 418.536 103.839C419.115 104.723 419.738 105.544 420.36 106.365L421.829 106.365L421.829 108.134C450.127 144.578 488.569 135.356 505.254 202.876C531.327 243.299 549.213 300.271 565.765 359.959C595.353 394.887 585.075 503.398 584.764 587.34C581.839 593.711 578.237 599.4 574.085 604.204C570.214 634.206 567.812 671.724 561.049 688.777C558.068 678.671 565.009 674.376 561.049 664.649C559.847 676.713 552.773 685.24 555.087 700.904C554.241 692.125 557.133 692.125 556.288 700.904C559.402 701.599 557.222 691.493 561.049 693.64C554.686 741.833 549.97 768.676 547.968 816.805C545.921 817.816 544.942 813.268 544.408 816.805C548.413 836.891 543.029 847.06 544.408 872.387C537.957 872.956 546.232 857.481 542.05 855.523C539.38 875.924 531.638 904.916 542.05 913.442C543.518 905.674 538.223 911.611 539.692 903.779C543.029 901.821 542.762 907.189 545.609 906.242C545.609 916.537 544.141 918.116 542.05 927.97C543.518 927.464 544.497 924.243 544.408 930.37C541.738 934.917 537.734 945.844 540.849 954.56C531.594 955.003 532.84 976.856 530.17 990.752C538.001 985.952 531.46 966.372 539.692 961.824C540.651 992.575 539.053 1023.38 534.931 1053.6C534.931 1049.81 534.931 1045.26 532.573 1046.4C532.795 1054.92 531.772 1060.86 529.013 1063.26C527.857 1036.8 537.601 1033.83 536.132 1012.73C528.524 1012.1 529.859 1017.15 529.013 1027.26C528.39 1034.21 524.876 1043.62 524.253 1051.39C524.03 1054.04 526.655 1057.26 526.611 1061.05C526.611 1076.08 520.515 1088.4 527.812 1090.04C529.325 1086.76 533.463 1082.9 533.73 1090.04C529.28 1088.34 530.793 1098.51 529.013 1102.11C531.416 1099.33 534.664 1105.9 531.371 1106.97C531.016 1102.67 530.393 1113.29 525.454 1111.77C523.763 1102.55 528.524 1094.21 525.454 1090.04C515.532 1114.11 523.674 1133.5 515.932 1160.09C516.981 1160.11 518.001 1160.59 518.852 1161.46C519.704 1162.32 520.347 1163.55 520.693 1164.95C515.131 1173.41 515.888 1194.19 519.492 1198.74C524.742 1170.89 528.613 1144.49 525.454 1119.03C527.456 1119.03 528.39 1115.24 532.573 1114.23C531.193 1133.81 529.28 1153.08 526.611 1157.69C526.611 1164.51 529.859 1151.94 529.013 1162.55C529.013 1166.53 525.721 1163.88 525.454 1167.35C530.882 1170.26 522.339 1182.51 523.051 1191.54L526.611 1191.54C525.542 1196.24 525.542 1201.3 526.611 1206.01C521.939 1209.86 526.21 1195.58 523.051 1196.34C522.072 1198.62 516.778 1204.17 520.693 1208.41C520.693 1205.56 520.471 1201.58 521.894 1201.21L521.894 1210.87C524.831 1210.49 527.634 1210.36 527.812 1215.67C525.587 1218.01 523.852 1208.41 523.051 1215.67C524.253 1217.56 526.032 1217.19 527.812 1222.93C523.941 1225.71 519.581 1229.25 517.134 1222.93L517.134 1232.6C520.56 1232.6 524.92 1233.92 526.611 1230.13C526.032 1237.78 529.414 1240.05 525.454 1242.26C525.454 1239.29 525.098 1236.51 523.051 1237.4C523.452 1243.08 527.189 1241.88 526.611 1249.46C520.916 1242.2 523.096 1260.26 518.335 1261.59C516.333 1254.77 521.138 1244.79 519.492 1242.26C516.333 1245.99 516.644 1249.27 515.932 1261.59C511.483 1265.13 515.71 1250.79 511.216 1254.32C514.366 1270.34 513.517 1287.41 508.813 1302.64C514.064 1304.54 510.549 1325.89 508.813 1329.23C514.197 1325.51 508.19 1345.02 513.574 1341.3C507.923 1356.84 513.841 1382.54 507.657 1394.48L511.216 1394.48C507.389 1406.8 512.328 1416.08 510.015 1426.06L504.097 1426.06C505.761 1414.82 505.347 1403.15 502.896 1392.21C501.872 1403.83 505.254 1424.48 500.538 1428.46C499.114 1422.14 504.186 1418.1 499.336 1418.8C496.978 1422.02 500.538 1433.32 496.978 1438.12C502.807 1435.22 504.053 1446.78 500.538 1450.25C496.088 1438.25 498.491 1462.25 498.135 1471.98C497.734 1484.61 492.796 1516.19 493.419 1532.36C493.819 1543.86 496.444 1551.94 491.016 1556.49C492.484 1556.49 493.819 1557.25 493.419 1561.35C484.119 1562.17 491.372 1596.53 484.297 1601.78C484.297 1609.43 483.27 1617.02 481.272 1624.13C478.38 1617.19 478.424 1624.14 479.715 1629.76C475.265 1630.45 474.909 1623.44 470.327 1624.13C471.305 1630.83 468.369 1644.47 471.884 1646.56C485.232 1640.62 482.295 1617.82 490.616 1607.33C483.586 1628.87 490.215 1645.23 490.616 1666.14C490.171 1660.39 486.478 1660.52 484.386 1657.74C485.499 1665.38 481.272 1663.36 481.272 1668.92C496.088 1663.42 484.431 1726.9 494.62 1737.7C494.086 1730.12 496.756 1729.17 495.821 1720.84C501.65 1725.45 498.98 1712.81 502.94 1713.57C508.012 1746.23 504.186 1777.87 510.059 1810.21C509.794 1810.27 509.524 1810.27 509.258 1810.21C507.176 1833.06 507.671 1856.24 510.727 1878.87C515.176 1862.76 504.408 1831.3 510.059 1817.22C512.017 1841.41 516.511 1860.42 517.178 1887.27C514.242 1889.54 513.218 1895.86 512.373 1902.49C512.373 1903.81 512.373 1905.2 512.373 1906.59C514.241 1907.54 514.064 1912.09 516.021 1912.91C514.464 1906.59 513.129 1896.68 518.246 1896.99C517.712 1901.03 518.646 1907.98 518.246 1912.4C518.35 1912.4 518.454 1912.4 518.557 1912.4C518.824 1917.96 519.225 1923.39 519.581 1928.76C519.729 1928.67 519.887 1928.63 520.048 1928.63C520.208 1928.63 520.367 1928.67 520.515 1928.76C519.536 1934.13 523.63 1941.39 520.515 1942.97C520.916 1947.65 521.316 1952.26 521.805 1956.87C523.719 1957.63 525.187 1959.46 522.695 1965.02L523.274 1970.45C523.433 1969.82 523.681 1969.24 524.002 1968.76C524.323 1968.27 524.711 1967.88 525.142 1967.61C526.433 1975.25 525.142 1973.1 525.142 1982.13C526.566 1982.13 527.945 1982.83 527.501 1986.93C527.101 1987.14 526.668 1987.19 526.251 1987.07C525.834 1986.94 525.45 1986.66 525.142 1986.24L526.077 1993.19C526.235 1992.83 526.443 1992.52 526.688 1992.28C526.932 1992.04 527.209 1991.88 527.501 1991.8C527.99 1996.41 530.037 1998.11 529.859 2003.86C529.502 2004.09 529.115 2004.21 528.724 2004.21C528.333 2004.21 527.946 2004.09 527.59 2003.86L528.746 2011.95C528.878 2011.12 529.161 2010.36 529.567 2009.73C529.974 2009.11 530.489 2008.66 531.06 2008.41C529.013 2018.14 532.439 2032.28 533.863 2043.72L537.467 2064.18C537.703 2064.24 537.943 2064.24 538.179 2064.18L538.179 2068.16L542.361 2091.09C540.315 2077.38 537.912 2059.51 539.425 2056.98C541.916 2066.2 541.561 2096.58 547.701 2083.51C546.054 2092.67 555.264 2092.1 550.103 2100.44C547.656 2097.09 546.811 2101.19 545.342 2093.24C545.342 2096.46 545.565 2101 544.453 2102.39L548.145 2122.79C548.069 2120.92 548.329 2119.05 548.902 2117.36C549.391 2128.98 549.347 2114.46 552.461 2117.36C552.495 2119.38 552.719 2121.37 553.129 2123.3C553.26 2123.04 553.447 2122.84 553.664 2122.74C553.88 2122.63 554.113 2122.63 554.33 2122.73C554.538 2123.72 554.686 2124.74 554.775 2125.76C555.519 2126 556.221 2126.44 556.841 2127.07C557.46 2127.7 557.983 2128.5 558.379 2129.43C556.733 2137.07 561.316 2144.02 558.379 2146.35C558.004 2141.62 556.693 2137.13 554.597 2133.41C554.321 2135.31 553.949 2137.19 553.485 2139.03C553.44 2141.69 552.694 2144.24 551.393 2146.16C549.347 2152.99 548.19 2158.35 554.33 2161.89C552.773 2156.96 555.754 2150.65 557 2154C557 2154 557 2154 557.222 2153.62C559.041 2158.87 559.854 2164.71 559.58 2170.54C557.445 2170.92 556.199 2163.85 556.243 2158.67C553.262 2166.25 560.07 2172.69 562.161 2175.91C561.653 2179.35 561.296 2182.83 561.093 2186.33C564.264 2200.76 565.767 2215.82 565.542 2230.93C564.456 2221.09 562.971 2211.34 561.093 2201.75C562.161 2231.43 570.392 2261.05 571.638 2285.06C572.661 2285.62 573.818 2286 574.931 2286.45C574.394 2282.36 573.665 2278.33 572.75 2274.38C576.176 2274.38 577.645 2282.21 576.799 2287.39C577.958 2287.95 578.916 2289.13 579.469 2290.68L580.092 2293.71C580.418 2293.74 580.745 2293.74 581.071 2293.71C582.094 2299.65 582.138 2307.67 585.831 2308.24C583.429 2298.57 582.717 2285.56 579.869 2276.66C586.454 2289.29 587.3 2313.1 591.749 2329.84C591.279 2329.93 590.8 2329.87 590.351 2329.65C589.902 2329.43 589.497 2329.06 589.168 2328.57L591.66 2336.6C593.938 2341.12 595.585 2346.22 596.51 2351.63C607.188 2384.16 618.979 2417.95 624.808 2459.45C624.808 2458.94 624.808 2458.43 624.808 2457.87C628.1 2461.15 627.522 2481.36 631.927 2474.79C631.177 2477.55 630.891 2480.51 631.092 2483.45C631.293 2486.39 631.975 2489.22 633.083 2491.72C633.528 2485.4 635.931 2483 640.202 2484.46C645.497 2513.2 652.216 2538.9 658 2566.57C653.55 2561.89 653.55 2567.51 649.724 2568.97C649.652 2566.44 650.051 2563.94 650.881 2561.7C646.031 2565.62 645.764 2555.89 639.046 2554.44C640.603 2558.61 642.917 2573.77 641.404 2576.23C638.823 2574.4 636.954 2565.62 634.285 2571.37C632.905 2567.77 632.816 2561.51 630.725 2559.3C629.346 2559.68 629.435 2563.09 629.524 2566.57C622.85 2567.26 624.007 2551.98 618.846 2549.64C618.267 2557.28 620.981 2558.17 620.047 2566.57C615.597 2568.59 614.307 2561.14 611.727 2566.57C615.687 2550.08 607.277 2550.78 611.727 2539.98L610.748 2537.39C599.046 2547.18 584.808 2552.36 574.575 2564.8C574.575 2570.1 579.736 2566.76 579.291 2573.2C566.877 2580.97 558.379 2577.43 548.145 2578.76C550.96 2578.84 553.716 2579.91 556.169 2581.87C558.622 2583.83 560.696 2586.63 562.205 2590C551.305 2589.87 540.582 2580.02 543.696 2563.98ZM445.366 1508.68C445.089 1520.85 445.61 1533.02 446.923 1545.06C448.792 1539.69 451.15 1509.62 445.366 1508.68ZM460.805 1205.5C460.915 1202.11 460.311 1198.74 459.07 1195.84C459.408 1199.22 459.99 1202.54 460.805 1205.75L460.805 1205.5ZM446.923 1183.71C445.544 1193.63 450.972 1198.17 445.366 1200.51C443.319 1188.89 439.048 1173.54 446.923 1169.69C443.275 1166.09 445.41 1151.94 439.137 1152.89C435.577 1160.09 438.514 1172.66 440.694 1178.15C431.573 1185.16 438.158 1211.63 437.579 1228.68C440.205 1229.69 440.516 1226.53 440.694 1223.12C441.806 1235.76 442.34 1254.7 451.595 1248.39C438.425 1234.43 459.07 1200.2 446.923 1183.96L446.923 1183.71ZM458.269 1189.58L458.714 1185.23C458.455 1185.68 458.173 1186.1 457.868 1186.49L458.269 1189.58ZM404.877 943.255C405.277 915.464 406.478 890.767 407.858 866.956C403.408 902.263 401.629 936.749 398.737 974.33C404.432 967.003 396.823 949.571 404.788 943.255L404.877 943.255ZM423.475 572.497C422.007 572.118 421.295 573.444 420.405 574.329C420.405 586.961 421.695 604.962 415.956 604.52C411.818 607.678 422.719 618.289 412.841 618.542C414.532 632.121 412.841 658.144 406.567 666.165C408.792 701.915 404.699 757.433 398.781 794.888C405.322 806.51 393.13 829.248 400.338 840.491C400.694 832.532 400.961 824.574 401.095 816.49C403.319 815.984 403.675 819.269 405.811 818.953C406.437 806.846 406.049 794.675 404.654 782.698C412.218 770.761 404.654 744.801 412.93 741.643C413.775 698.694 412.93 636.858 427.212 609.004C423.964 601.172 429.126 595.109 429.571 587.277C427.524 583.992 427.657 576.287 425.121 573.697L425.121 574.013C424.009 574.265 423.564 573.634 423.386 572.497L423.475 572.497ZM471.973 2166.5C474.064 2161.83 478.024 2160.5 476.689 2149.7C471.483 2149.26 469.125 2161.13 471.884 2166.5L471.973 2166.5ZM487.59 2169.28C491.55 2159.3 487.19 2140.29 486.033 2130.12C475.31 2143.89 484.698 2151.53 487.501 2169.28L487.59 2169.28ZM447.546 1501.29C446.957 1493.9 448.099 1486.44 450.794 1480.06C450.82 1472.44 449.456 1464.93 446.834 1458.27C445.154 1466.32 444.535 1474.73 445.01 1483.1C445.661 1482.77 446.217 1482.15 446.589 1481.33C446.96 1480.5 447.125 1479.52 447.056 1478.55C447.412 1445.83 449.593 1482.34 445.455 1492.82C445.661 1496.29 446.124 1499.72 446.834 1503.05C447.128 1502.49 447.395 1501.9 447.635 1501.29L447.546 1501.29ZM399.893 843.775C393.931 848.954 393.086 863.797 396.912 873.272C394.955 877.44 392.463 866.45 389.126 876.051C400.828 890.325 389.126 919.064 391.573 941.739C395.559 909.311 398.366 876.613 399.982 843.775L399.893 843.775ZM367.235 1514.3C364.744 1526.11 369.46 1543.29 367.235 1550.68L371.952 1550.68C369.727 1538.05 372.663 1533.12 371.952 1517.08C371.338 1517.97 370.604 1518.67 369.794 1519.15C368.983 1519.63 368.113 1519.87 367.235 1519.86L367.235 1514.3ZM365.678 1424.73C360.472 1431.05 361.229 1442.17 362.563 1450C367.102 1447.85 369.015 1431.93 365.767 1424.73L365.678 1424.73ZM375.066 1416.33C374.242 1417.43 373.254 1418.25 372.175 1418.73C371.097 1419.21 369.956 1419.34 368.837 1419.11C369.415 1426.44 373.82 1426.94 371.952 1438.69C375.2 1440.9 373.865 1422.02 375.155 1416.33L375.066 1416.33ZM370.617 1449.87C370.617 1452.65 372.485 1452.08 373.731 1452.71C373.108 1459.66 366.568 1454.86 369.282 1447.09C368.793 1443.81 364.388 1456.82 363.008 1461.12C367.235 1464.72 368.57 1462.38 375.511 1461.12C376.356 1457.01 373.687 1446.65 377.068 1447.09C375.378 1438.82 374.399 1453.6 370.483 1449.87L370.617 1449.87ZM372.174 1402.31C375.244 1397.01 374.799 1392.46 373.731 1385.51C369.326 1385.38 369.86 1398.71 372.041 1402.31L372.174 1402.31ZM370.617 1480.7C367.369 1486.44 364.299 1502.99 367.458 1511.52C371.596 1501.1 368.926 1492.32 370.483 1480.7L370.617 1480.7ZM391.084 982.604C388.948 989.994 390.683 1004.39 387.747 1010.4C387.996 1010.82 388.329 1011.12 388.702 1011.27C389.076 1011.41 389.472 1011.4 389.838 1011.22C390.416 1001.49 390.728 991.826 390.95 982.604L391.084 982.604ZM391.084 1095.85C392.462 1085.16 392.462 1074.2 391.084 1063.51C391.262 1073.62 391.217 1084.29 390.95 1095.85L391.084 1095.85ZM362.786 1315.53C361.807 1315.91 361.496 1315.09 361.318 1313.95C361.318 1322.79 361.095 1331.32 360.873 1339.66C363.765 1343.07 369.771 1347.24 370.617 1343.51C372.174 1335.11 367.102 1338.58 364.343 1337.95C365.544 1324.06 364.343 1323.11 364.343 1307.13C362.385 1307.57 362.919 1312.24 362.652 1315.53L362.786 1315.53ZM360.428 1360.69L360.428 1373.32C361.63 1371.62 362.373 1369.37 362.527 1366.97C362.682 1364.57 362.238 1362.17 361.273 1360.18C360.925 1360.25 360.591 1360.42 360.294 1360.69L360.428 1360.69ZM428.992 730.022C431.172 728.253 430.905 725.411 430.46 722.442C429.827 724.924 429.292 727.454 428.859 730.022L428.992 730.022ZM427.835 756.802C427.835 758.57 427.835 760.339 428.191 762.171C428.844 760.115 429.408 758.006 429.882 755.855C429.197 756.34 428.461 756.66 427.702 756.802L427.835 756.802ZM427.568 750.486C428.796 746.847 429.578 742.939 429.882 738.927C429.246 738.924 428.615 738.775 428.013 738.485C427.637 742.463 427.444 746.472 427.435 750.486L427.568 750.486ZM415.911 850.091C416.4 849.586 416.534 848.323 416.489 846.807L415.911 850.091ZM397.446 990.436C397.09 996.058 400.872 993.152 401.006 997.7C398.496 1000.75 396.722 1004.83 395.934 1009.38C396.29 1009.82 396.697 1010.16 397.135 1010.4C397.139 1011.14 396.951 1011.86 396.606 1012.42C396.262 1012.97 395.785 1013.33 395.266 1013.43C394.562 1023.42 395.104 1033.51 396.868 1043.24C398.247 1037.43 398.648 1028.21 401.317 1032.31C399.359 1028.71 400.249 1021.2 401.006 1013.36C400.828 1009.81 400.365 1006.29 399.626 1002.88C400.073 1003.01 400.492 1003.29 400.848 1003.7C401.203 1004.1 401.486 1004.62 401.673 1005.22C401.985 998.079 401.273 991.699 397.224 988.794L397.446 990.436ZM428.325 1116.76L428.325 1108.36C428.592 1105.07 431.217 1105.96 432.774 1105.52C431.205 1099.88 428.496 1095.02 424.988 1091.56C426.679 1104.76 420.449 1114.74 428.191 1116.82L428.325 1116.76ZM439.359 1237.14C435.978 1228.43 434.91 1253.06 440.916 1251.17C443.275 1242.39 434.91 1239.73 439.359 1237.14ZM455.021 1292.85C452.761 1303.79 451.902 1315.21 452.485 1326.58C454.353 1321.15 453.241 1314.39 456.934 1309.4C453.73 1306.12 454.309 1299.3 454.798 1292.85L455.021 1292.85ZM455.021 1282.62C454.895 1281.86 454.685 1281.14 454.398 1280.47C454.472 1281.94 454.681 1283.38 455.021 1284.77C454.709 1283.95 454.754 1283.25 454.754 1282.62L455.021 1282.62ZM458.091 1306.94C458.637 1308.07 459.099 1309.27 459.47 1310.54C459.737 1306.5 460.138 1302.45 460.227 1298.92C459.249 1301.48 458.444 1304.16 457.824 1306.94L458.091 1306.94ZM455.733 1343.19C456.889 1343.19 457.601 1344.96 457.913 1346.98C459.159 1339.59 460.76 1331.13 462.807 1329.55C461.682 1328.46 460.789 1326.95 460.227 1325.19C459.429 1331.56 457.815 1337.66 455.466 1343.19L455.733 1343.19ZM454.754 1355.32L455.021 1357.53C455.377 1360.63 455.911 1358.73 456.623 1354.88C456.329 1355.22 455.974 1355.44 455.598 1355.52C455.222 1355.6 454.837 1355.53 454.487 1355.32L454.754 1355.32ZM448.792 1354.69C449.949 1329.99 447.279 1298.41 450.349 1276.37C442.296 1282.12 445.9 1302.9 445.633 1312.75C445.28 1350.05 446.319 1387.34 448.747 1424.48C449.014 1422.21 449.593 1420.57 450.972 1420.5C451.02 1421.24 451.02 1421.98 450.972 1422.71C457.69 1412.73 443.319 1371.68 453.33 1360.31C453.419 1349.26 450.794 1361.19 448.525 1354.69L448.792 1354.69ZM454.709 1273.78C455.031 1272.64 455.255 1271.45 455.377 1270.24C454.843 1271.69 454.62 1272.58 454.442 1273.78L454.709 1273.78ZM456.578 1503.05C461.472 1485.24 457.824 1479.18 458.135 1455.49C453.686 1465.85 454.887 1486.76 456.311 1503.05L456.578 1503.05ZM304.588 2324.78C302.942 2324.78 301.429 2324.78 300.94 2326.87C301.553 2328.95 302.411 2330.88 303.476 2332.55C304.161 2330.09 304.449 2327.43 304.321 2324.78L304.588 2324.78ZM78.028 1802.82C83.8121 1836.99 78.3394 1871.85 85.1914 1913.22C81.454 1935.65 88.217 1965.02 86.3927 1987.76C94.2681 2011.31 91.8654 2041.88 95.9588 2070.56C101.476 2109.66 109.663 2140.35 115.002 2183.75C118.161 2209.33 132.399 2247.41 137.694 2280.32C141.431 2304 146.592 2337.16 159.139 2324.53C130.842 2247.92 111.843 2125.01 99.5183 2029.19C99.0734 2024.52 100.453 2024.07 101.876 2023.76C101.12 2016.37 98.495 2013.21 97.1157 2007.15C101.565 1986.49 95.2914 1972.72 94.7575 1960.22C95.2522 1955.45 95.9355 1950.73 96.8042 1946.07L95.2469 1930.66C93.7342 1927.56 90.7976 1926.3 89.9522 1918.85C91.2874 1910.97 91.9006 1902.88 91.7765 1894.78L89.9077 1875.26C89.3245 1871.92 88.1092 1868.86 86.3927 1866.42C87.3585 1864.72 88.0837 1862.77 88.5284 1860.67L87.6386 1851.64C84.2701 1844.67 82.9604 1836.1 83.9901 1827.77C83.9901 1825.05 84.5685 1824.86 85.1914 1825.75L82.9668 1803.13C79.9857 1802.88 79.8522 1797.96 77.8055 1802.57L78.028 1802.82ZM75.6698 1780.71C76.3817 1787.34 80.8311 1785.32 79.2293 1797.32C79.7707 1797.09 80.3414 1797.02 80.9021 1797.13C81.4629 1797.24 82.0003 1797.52 82.4773 1797.96L82.2549 1795.37L80.9201 1782.04C78.9623 1780.02 77.4051 1775.66 75.4474 1780.46L75.6698 1780.71ZM72.0659 1753.17C71.5989 1738.24 70.0028 1723.41 67.3051 1708.96C63.4786 1715.4 63.7901 1755.45 71.8434 1752.92L72.0659 1753.17ZM62.5443 1659.32C66.9936 1676.87 61.6989 1683.38 68.5064 1692.41C70.1082 1687.86 67.5275 1676.31 68.5064 1664.81C64.591 1666.64 65.9703 1656.98 62.3218 1659.06L62.5443 1659.32ZM74.4685 1722.79C76.8712 1737.95 75.5364 1752.98 78.9179 1761.07L75.1804 1723.17C74.513 1722.6 74.513 1722.6 74.246 1722.54L74.4685 1722.79ZM54.1795 1515.81C54.8353 1516.4 55.4466 1517.07 56.0037 1517.83L55.2029 1508.68C54.2064 1510.68 53.763 1513.13 53.9571 1515.56L54.1795 1515.81ZM54.1795 1504.7C54.4434 1504.84 54.6852 1505.05 54.8914 1505.33L54.8914 1502.68C54.5131 1503.19 54.1973 1503.79 53.9571 1504.44L54.1795 1504.7ZM550.593 618.415C550.237 608.815 546.455 621.131 547.033 611.152C545.743 611.783 546.232 615.952 544.631 616.015C544.542 622.142 548.857 621.7 550.593 618.415ZM541.071 613.552C537.69 613.931 538.935 623.658 538.713 630.479C542.984 632.437 540.003 619.047 540.849 613.552L541.071 613.552ZM548.19 751.307C547.122 744.991 544.052 753.77 542.272 753.707C541.605 759.076 544.542 757.181 544.631 760.971C546.855 760.086 544.72 750.233 547.968 751.307L548.19 751.307ZM532.795 736.78C533.552 729.516 535.331 739.117 537.512 736.78C539.736 711.515 545.698 708.294 542.272 681.198C551.749 671.723 548.146 648.606 550.593 623.279C542.584 629.595 545.342 646.459 542.272 659.47C547.656 659.091 542.272 667.365 541.071 678.798C538.624 669.955 541.472 664.713 541.071 654.607C539.024 645.448 541.071 664.081 538.713 661.934C535.064 655.112 542.717 650.817 541.071 640.143C532.172 643.427 536.622 662.755 535.153 676.397C536.622 675.324 537.601 673.303 537.512 669.134C540.315 676.587 534.308 686.63 531.594 690.925C531.016 713.852 531.371 750.738 523.274 751.307C526.477 756.802 530.526 753.454 528.035 765.771C533.018 763.181 534.264 746.317 532.795 736.78ZM519.447 710.189L519.447 717.452C522.25 717.452 522.962 713.284 526.566 715.052L526.566 705.389C524.52 707.536 523.585 712.147 519.447 710.189ZM519.447 739.18C516.11 748.465 516.11 764.445 514.731 777.835C520.426 773.287 518.468 753.202 519.447 739.18ZM533.685 768.171C531.594 760.844 530.037 774.803 528.969 768.171C527.901 773.603 523.897 779.351 526.566 785.098C526.878 775.119 533.418 778.024 533.73 768.171L533.685 768.171ZM517.089 850.281L517.089 862.345C520.293 863.355 522.918 846.428 517.134 850.344L517.089 850.281ZM520.649 886.536C520.209 887.27 519.664 887.864 519.05 888.277C518.437 888.691 517.768 888.915 517.089 888.936C515.443 879.146 519.67 881.293 519.447 874.472C518.068 874.851 517.356 873.903 517.089 872.008C515.513 881.509 514.722 891.239 514.731 901C520.159 903.21 519.447 893.104 520.693 886.409L520.649 886.536ZM519.447 925.19C514.597 927.338 515.265 940.791 514.731 951.718C517.206 943.272 518.795 934.355 519.447 925.254L519.447 925.19ZM519.447 1060.48C522.028 1053.47 517.312 1046.59 521.85 1043.55C517.756 1033.89 518.157 1053.6 515.888 1055.68C515.888 1057.58 517.089 1058.02 517.089 1060.48L519.447 1060.48ZM504.052 1364.92C507.879 1361.95 504.942 1372.69 508.769 1369.72C508.769 1365.93 508.235 1360.5 509.97 1360.06C507.123 1352.41 506.411 1362.71 502.851 1352.79C504.764 1360.75 502.584 1362.08 502.851 1372.18C504.275 1371.81 503.919 1367.83 504.097 1364.98L504.052 1364.92ZM500.493 1401.18C500.849 1388.86 501.828 1384.31 500.493 1376.98C495.065 1376.16 503.341 1393.72 496.934 1393.91L496.934 1401.18L500.493 1401.18ZM490.972 1263.42C490.731 1271.52 491.134 1279.64 492.173 1287.61C499.203 1264.24 494.308 1231.08 498.09 1200.64C498.09 1203.54 498.446 1206.32 500.493 1205.44C501.072 1192.81 504.631 1184.53 499.292 1178.85C504.364 1170.51 502.139 1146.13 507.612 1145.06C505.832 1144.74 505.209 1144.3 505.209 1140.19C505.209 1080.31 520.56 1028.96 514.731 966.245C513.218 1002.82 509.525 1022.21 508.769 1070.15C506.01 1070.9 508.101 1081.58 504.053 1079.81C513.485 977.172 511.972 878.388 517.089 782.951C510.326 812.952 509.08 875.861 508.769 918.243C508.057 921.969 506.589 920.264 506.411 925.506C504.853 968.709 504.587 1008.82 500.493 1053.53C493.374 1130.65 486.789 1215.23 486.255 1278.26C481.316 1300.94 484.253 1325.38 480.293 1350.71C471.839 1196.85 497.245 1065.09 499.292 920.643C488.836 952.539 491.105 1010.27 480.293 1041.47C481.405 1041.47 481.717 1043.05 482.473 1043.68C479.848 1052.78 478.024 1063.64 475.577 1072.86C481.984 1084.36 472.062 1092.63 475.577 1111.52C469.437 1113.1 477.001 1100.02 473.174 1099.45C468.725 1108.8 473.664 1137.35 466.1 1140.51C467.345 1122.32 464.409 1125.73 461.339 1126.04C464.809 1092.76 469.57 1023.72 467.257 980.772C474.687 913.063 474.197 821.353 476.734 748.844C477.757 720.61 472.685 703.304 472.017 673.934C471.394 646.206 476.956 618.857 476.734 591.824C475.221 587.719 474.287 582.35 470.816 582.161C461.561 587.466 459.737 607.93 454.22 620.815C451.817 650.628 440.872 662.881 439.982 695.725L439.359 696.925C441.041 713.436 438.685 730.267 432.685 744.612C438.113 767.097 439.359 805.499 429.571 814.595C430.95 822.743 431.929 817.753 435.844 817.374C432.463 825.522 438.692 833.48 432.685 837.017C432.685 833.733 432.997 829.059 431.172 828.617C432.329 839.101 429.393 842.259 424.899 842.575C423.996 819.155 425.042 795.665 428.013 772.592C427.402 773.196 426.656 773.459 425.918 773.331C425.179 773.202 424.499 772.692 424.009 771.897C422.229 775.813 420.494 779.73 418.892 783.898C417.157 804.299 416.845 824.385 420.227 837.017C419.203 837.803 418.39 839.046 417.913 840.554C418.104 840.5 418.301 840.5 418.492 840.554C418.981 848.133 416.623 857.987 418.492 872.135C416.045 874.345 414.665 872.83 413.731 869.735C413.33 877.061 413.197 884.83 413.242 892.22C414.265 892.599 415.155 893.357 414.932 896.326C414.577 897.505 414.046 898.561 413.375 899.42C413.387 907.623 414.12 915.792 415.555 923.738C421.562 904.789 420.583 879.525 423.341 845.354C431.172 847.691 429.393 867.461 428.013 878.956C430.238 878.261 430.638 874.282 432.463 873.335C434.465 893.483 431.528 891.525 429.348 906.874C437.579 907.442 429.66 941.739 430.95 954.497C423.43 958.603 429.482 938.391 423.119 940.539C421.562 954.055 427.568 964.414 423.119 974.077C424.098 973.256 429.126 967.13 429.348 974.077C427.479 981.909 425.922 990.31 421.562 993.657C425.433 1023.66 417.557 1059.41 429.348 1086.06C427.346 1063.01 429.348 1042.61 426.234 1027.26C438.469 1032.31 425.655 1058.84 435.622 1072.04C434.865 1059.41 437.757 1058.15 435.622 1049.68C446.879 1085.68 426.189 1130.09 443.408 1147.65C439.493 1066.42 447.857 1009.83 448.124 929.296C459.114 936.812 446.878 968.898 454.353 990.878C448.747 996.31 451.461 998.71 448.124 1016.14C451.506 1017.91 453.063 1008.18 452.796 1018.92C442.385 1063.14 455.51 1128.63 449.682 1170.07C450.995 1170.15 452.296 1169.67 453.409 1168.67C454.522 1167.68 455.395 1166.23 455.911 1164.51C452.44 1160.4 457.468 1141.08 460.36 1147.2C460.36 1144.8 460.716 1142.53 461.027 1140.38C466.367 1142.59 464.943 1163.81 461.027 1166.97C460.26 1160.97 460.036 1154.86 460.36 1148.78C457.201 1159.33 462.362 1169.94 460.894 1179.16C461.561 1183.46 459.47 1193.37 462.051 1193.69C465.121 1191.79 462.318 1178.09 466.812 1179.16C468.516 1194.43 465.962 1210.04 459.693 1222.68C459.544 1221.77 459.455 1220.84 459.426 1219.9C459.13 1221.04 458.965 1222.23 458.936 1223.44C464.809 1234.18 461.695 1245.99 458.269 1257.36C458.927 1258.22 459.735 1258.82 460.61 1259.1C461.486 1259.38 462.397 1259.32 463.252 1258.94C462.985 1264.24 461.739 1271.25 460.894 1277.88C461.378 1277.68 461.791 1277.23 462.051 1276.62C462.934 1283.47 463.292 1290.44 463.119 1297.4C463.119 1314.39 460.983 1328.22 468.28 1340.86C467.301 1354.94 460.76 1359.05 462.051 1377.24C465.515 1375.31 468.687 1372.46 471.394 1368.84C465.21 1387.15 445.544 1379.01 454.264 1408.06C460.405 1408.82 454.709 1388.35 458.714 1385.64C458.402 1396.37 459.96 1386.65 463.386 1388.42C465.121 1397.2 463.919 1405.22 460.76 1407.37C460.408 1407.23 460.039 1407.22 459.684 1407.33C459.328 1407.44 458.996 1407.67 458.714 1408C459.419 1407.99 460.116 1407.77 460.76 1407.37C462.763 1408.25 460.315 1417.28 463.386 1416.4C469.214 1413.74 466.678 1396.19 471.172 1391.13C469.348 1399.41 472.195 1410.08 471.172 1424.73C467.301 1424.29 463.608 1424.17 463.386 1430.29C468.369 1442.29 456.845 1469.45 469.615 1469.52C470.104 1457.26 465.165 1456.88 468.057 1447.09C474.731 1446.52 471.261 1480.57 477.445 1463.89C476.778 1475.71 473.708 1483.35 472.729 1494.65C469.659 1495.54 469.659 1490.86 468.28 1489.1C467.523 1505.64 459.96 1507.48 465.165 1525.48C467.657 1525.48 466.411 1518.34 469.837 1519.86C472.418 1535.58 462.451 1529.01 462.051 1539.44C465.788 1543.04 461.205 1561.54 465.165 1564.7C468.458 1540.07 478.914 1522.95 471.394 1500.28C474.598 1508.17 480.604 1500.28 480.782 1508.68C474.642 1524.85 477.534 1542.59 479.225 1559.2C480.916 1559.58 481.183 1548.59 482.696 1550.24C484.12 1451.45 485.81 1366.44 491.016 1263.48L490.972 1263.42ZM482.874 1579.67L482.874 1572.15C482.358 1572.6 481.782 1572.88 481.183 1572.97C481.761 1561.16 474.242 1570.26 476.734 1578.6C479.403 1573.73 480.871 1577.02 482.918 1579.73L482.874 1579.67ZM482.874 1555.67C482.673 1556.92 482.673 1558.21 482.874 1559.46L482.874 1555.67ZM479.492 1584.22C477.092 1586.31 475.199 1589.4 474.064 1593.06C474.489 1597.5 474.489 1602.01 474.064 1606.45C479.759 1605.82 480.16 1595.78 479.715 1584.28L479.492 1584.22ZM468.547 1645.8C467.924 1640.43 468.013 1633.74 463.875 1634.56C461.606 1638.54 463.297 1647.95 468.769 1645.86L468.547 1645.8ZM466.99 1656.98C462.54 1660.83 463.564 1675.11 466.99 1679.4C474.642 1674.41 466.278 1666.9 467.212 1656.98L466.99 1656.98ZM502.584 1727.34C499.514 1729.87 498.135 1735.99 494.308 1736.94C495.073 1737.71 495.953 1738.22 496.879 1738.43C497.805 1738.64 498.753 1738.54 499.648 1738.14C501.085 1745.29 500.674 1752.93 498.491 1759.68C499.203 1763.28 499.826 1767.01 500.404 1770.86C500.927 1770.27 501.513 1769.8 502.139 1769.47C502.914 1755.48 503.166 1741.43 502.896 1727.4L502.584 1727.34ZM498.891 1774.4C498.491 1770.67 498.891 1765.49 497.334 1764.04C494.041 1775.85 490.527 1786.71 498.135 1794.1C498.748 1787.59 499.104 1781.03 499.203 1774.46L498.891 1774.4ZM507.479 1809.77C505.432 1809.32 504.053 1807.43 501.383 1814.25L501.383 1803.26C501.244 1808.01 500.165 1812.61 498.268 1816.52C504.142 1818.99 505.343 1813.3 507.79 1809.83L507.479 1809.77ZM463.786 1917.14C469.437 1891.88 460.271 1876.4 468.458 1849.94C468.458 1842.61 457.69 1844.38 465.343 1838.76C464.186 1833.77 462.496 1838.32 460.894 1838.76C457.423 1771.93 455.288 1685.59 453.108 1620.41C454.665 1612.96 459.381 1611.19 462.451 1606.39C463.03 1598.62 456.534 1589.33 460.894 1584.03C459.559 1575.82 456.978 1587.63 453.108 1584.03C452.307 1592.81 455.911 1593.88 454.665 1603.61C452.647 1601.44 451.104 1598.51 450.216 1595.14L449.504 1596.66C447.145 1579.16 444.342 1576.64 445.944 1553.2C446.315 1553.18 446.686 1553.18 447.056 1553.2C446.23 1551.13 445.127 1549.31 443.808 1547.84C444.565 1566.78 445.01 1586.49 445.321 1606.32C448.792 1605.06 447.902 1600.01 451.862 1604.11C452.529 1616.75 447.412 1617.25 445.366 1609.99C445.677 1633.36 445.855 1656.92 446.078 1680.16C446.078 1678.52 446.3 1676.81 447.145 1676.56C448.391 1684.77 447.501 1669.86 450.705 1674.16C450.393 1685.09 453.552 1699.04 449.504 1705.74C448.981 1700.32 447.854 1695.06 446.167 1690.14C446.167 1702.08 446.434 1713.82 446.612 1725.51C447.946 1728.16 450.527 1726.14 451.862 1722.67C448.302 1745.4 453.686 1748.25 454.264 1773.2C452.485 1773.57 449.815 1772.31 449.504 1775.53C449.798 1777.75 450.506 1779.82 451.555 1781.52C452.603 1783.22 453.954 1784.49 455.466 1785.2C455.466 1792.33 455.021 1798.84 450.705 1797.32C451.283 1787.47 445.232 1771.17 450.705 1768.33C449.767 1763.61 448.638 1758.97 447.323 1754.44C448.08 1780.14 449.326 1804.65 451.417 1827.01C455.154 1830.8 459.648 1832.95 458.981 1845.64C457.822 1845.7 456.67 1845.38 455.618 1844.68C454.567 1843.99 453.645 1842.96 452.93 1841.66C453.508 1846.4 454.086 1851.14 454.754 1855.68C445.099 1900.34 459.203 1950.87 453.197 1984.41C458.091 1981.25 456.712 1984.41 462.54 1984.41L462.54 2009.67C457.868 2009.67 464.72 1988.96 457.868 1992.87C459.826 2016.81 462.318 2060.14 464.097 2093.61C466.678 2090.77 465.788 2081.74 467.212 2076.88C473.93 2081.04 462.763 2120.46 473.441 2124.44C473.441 2110.54 472.952 2096.84 472.462 2083.13C471.732 2082.33 471.177 2081.26 470.86 2080.03L472.329 2080.03C471.884 2068.67 471.394 2057.3 470.816 2045.99C469.932 2042.91 469.16 2039.77 468.502 2036.58C469.199 2036.84 469.84 2037.34 470.371 2038.03C469.392 2020.16 468.28 2002.28 467.212 1984.47C467.924 1980.3 469.214 1985.61 471.884 1984.47C471.038 1980.43 473.708 1970.01 470.327 1970.51C468.364 1967.1 466.857 1963.2 465.877 1959.02C464.32 1958.32 463.386 1956.49 463.697 1952.01C463.924 1951.89 464.134 1951.72 464.32 1951.5C463.489 1946.07 462.909 1940.56 462.585 1935.02C460.627 1934.19 459.782 1931.04 458.936 1927.82C459.078 1927.4 459.276 1927.03 459.52 1926.73C459.764 1926.43 460.048 1926.2 460.355 1926.06C460.663 1925.92 460.987 1925.87 461.309 1925.91C461.631 1925.95 461.944 1926.08 462.229 1926.3C462.006 1917.52 462.229 1908.68 462.496 1900.53C466.055 1900.91 463.208 1912.47 464.097 1917.39L463.786 1917.14ZM474.954 2191.7C475.666 2187.28 479.893 2189.3 478.113 2180.46C469.882 2182.23 473.663 2189.11 473.397 2202.88C477.089 2202.13 477.045 2195.43 474.954 2191.7ZM482.785 2205.66C473.085 2201.87 476.244 2226.76 482.785 2225.31L482.785 2205.66ZM629.613 2495.7C629.705 2488.34 628.672 2481.03 626.587 2474.29C627.032 2478.9 627.433 2483.57 627.744 2488.37C627.165 2489.97 626.225 2491.23 625.075 2491.97C625.268 2494.85 625.61 2497.7 626.098 2500.5C628.323 2500.63 629.346 2498.67 629.835 2495.7L629.613 2495.7ZM600.47 2520.96C598.886 2522.88 597.546 2525.16 596.51 2527.72C597.099 2529.14 597.881 2530.37 598.812 2531.34C599.742 2532.32 600.801 2533.02 601.926 2533.4C603.051 2533.78 604.218 2533.84 605.359 2533.57C606.5 2533.3 607.591 2532.71 608.568 2531.83C606.511 2527.43 603.828 2523.68 600.692 2520.84L600.47 2520.96Z" fill="#F05424"/>
<path fill-rule="evenodd" clip-rule="evenodd" d="M502.531 707.437C509.76 710.708 498.917 695.746 504.314 697.945C504.314 700.84 504.809 703.575 507.779 702.717C508.275 708.938 507.136 712.907 502.531 712.209L502.531 707.437Z" fill="#F05424"/>
<path fill-rule="evenodd" clip-rule="evenodd" d="M32.1676 1399.93C35.5331 1403.86 37.8293 1408.72 38.8021 1413.98C35.5344 1412.53 30.0385 1402.99 32.1676 1399.93Z" fill="#F05424"/>
<path fill-rule="evenodd" clip-rule="evenodd" d="M37.5156 1495.87L37.5156 1486.54C40.5887 1488.22 43.2909 1490.6 45.4375 1493.51C40.7834 1495.6 42.1697 1493.83 37.5156 1495.87Z" fill="#F05424"/>
<path fill-rule="evenodd" clip-rule="evenodd" d="M41.4761 1507.61C41.3285 1512.64 42.7211 1517.58 45.437 1521.67L40.1393 1521.67C42.1197 1514.53 36.1288 1506.22 41.4761 1507.61Z" fill="#F05424"/>
<path fill-rule="evenodd" clip-rule="evenodd" d="M41.4762 1538.08C44.9915 1537.32 45.8332 1541.35 45.4371 1547.46C41.0306 1549.77 41.1296 1544.19 41.4762 1538.08Z" fill="#F05424"/>
<path fill-rule="evenodd" clip-rule="evenodd" d="M49.4472 1552.13C49.3776 1554.55 49.8355 1556.96 50.784 1559.15C49.1501 1559.42 47.6152 1559.85 48.1103 1563.82C44.694 1565 40.5845 1555.56 44.1494 1552.13C46.0803 1562.48 46.0803 1555.77 49.4472 1552.13Z" fill="#F05424"/>
<path fill-rule="evenodd" clip-rule="evenodd" d="M44.1499 1563.82C47.7459 1575.36 50.7704 1587.1 53.2106 1599C50.735 1600.87 47.8633 1602 46.576 1606.02C44.5556 1599.06 45.033 1591.54 47.9128 1584.95C43.9519 1584.3 41.3773 1568.86 44.1499 1563.82Z" fill="#F05424"/>
<path fill-rule="evenodd" clip-rule="evenodd" d="M46.7754 1345.87C44.9435 1361.96 51.7266 1350.43 50.7859 1362.28C46.0327 1363.03 42.1213 1347.48 46.7754 1345.87Z" fill="#F05424"/>
<path fill-rule="evenodd" clip-rule="evenodd" d="M48.2599 1261.52C51.1811 1271.76 50.1414 1274.87 50.9336 1287.31C45.7843 1286.88 42.7641 1265.49 48.2599 1261.52Z" fill="#F05424"/>
<path fill-rule="evenodd" clip-rule="evenodd" d="M56.0824 1652.89C56.528 1660.19 53.0127 1664.1 56.0824 1669.3C51.3293 1668.61 51.3293 1653.59 56.0824 1652.89Z" fill="#F05424"/>
<path fill-rule="evenodd" clip-rule="evenodd" d="M58.7066 1737.25C65.4402 1736.07 56.7756 1730.6 57.4192 1725.56C63.7568 1722.02 64.549 1742.93 60.0434 1744.27L60.0434 1739.61C59.2512 1739.45 58.459 1739.29 58.7066 1737.25Z" fill="#F05424"/>
<path fill-rule="evenodd" clip-rule="evenodd" d="M49.4473 1643.51C55.8838 1641.09 45.6348 1634.23 52.0714 1631.82C53.4643 1635.52 53.9256 1639.55 53.4082 1643.51C51.1307 1642.6 49.9919 1646.99 49.4473 1643.51Z" fill="#F05424"/>
<path fill-rule="evenodd" clip-rule="evenodd" d="M520.008 1828.95C521.554 1833.66 522.876 1838.46 523.969 1843.32C518.225 1842.25 518.621 1832.7 520.008 1828.95Z" fill="#F05424"/>
<path fill-rule="evenodd" clip-rule="evenodd" d="M553.28 1400.31C557.39 1392.8 554.221 1377.25 559.865 1379.82C558.826 1383.25 558.826 1398.59 553.28 1400.31Z" fill="#F05424"/>
<path fill-rule="evenodd" clip-rule="evenodd" d="M556.994 1476.24C556.152 1483.16 556.053 1491.2 553.033 1494.69C552.042 1484.98 554.518 1480.59 554.32 1472.11L562.242 1472.11L562.242 1480.37C558.231 1482.68 559.073 1477.1 556.994 1476.24Z" fill="#F05424"/>
<path fill-rule="evenodd" clip-rule="evenodd" d="M556.992 1065.94C560.755 1073.07 553.873 1079.67 556.992 1086.48C551.398 1085.78 556.349 1070.23 556.992 1065.94Z" fill="#F05424"/>
<path fill-rule="evenodd" clip-rule="evenodd" d="M558.232 1519.31C558.529 1511.05 557.935 1510.13 555.608 1515.18C555.608 1504.72 554.667 1493.19 559.569 1490.56C559.569 1511.37 562.688 1522.36 556.945 1539.84C554.617 1534.59 554.914 1516.19 558.232 1519.31Z" fill="#F05424"/>
<path fill-rule="evenodd" clip-rule="evenodd" d="M558.231 1041.32C557.564 1035.69 558.497 1029.96 560.905 1024.91C561.004 1031.88 561.351 1039.23 558.231 1041.32Z" fill="#F05424"/>
<path fill-rule="evenodd" clip-rule="evenodd" d="M562.242 1334.67C562.242 1344 564.817 1361.1 559.618 1367.54C562.242 1359.23 559.272 1342.28 562.242 1334.67Z" fill="#F05424"/>
<path fill-rule="evenodd" clip-rule="evenodd" d="M563.579 1359.28C571.204 1357.83 567.639 1382.07 562.242 1379.82C563.43 1368.29 567.292 1369.52 563.579 1359.28Z" fill="#F05424"/>
<path fill-rule="evenodd" clip-rule="evenodd" d="M576.799 1441.38C573.283 1427.76 576.502 1417.84 570.164 1412.64C572.739 1412.37 576.452 1403.47 572.838 1400.31C571.055 1400.31 571.6 1403.9 570.164 1404.43C569.124 1393.39 572.986 1387.38 568.877 1381.86C566.946 1384.38 567.094 1390.06 563.579 1390.06C564.173 1381.64 568.926 1377.41 571.501 1377.78C572.194 1366.68 567.837 1361.16 571.501 1355.2C574.323 1356.92 571.006 1368.24 574.125 1369.52C573.878 1363.68 574.472 1359.12 576.799 1357.24C577.195 1368.4 577.195 1374.35 572.838 1373.65C580.512 1376.82 571.253 1377.57 571.501 1385.93C572.322 1386.89 573.367 1387.6 574.527 1387.96C575.686 1388.33 576.916 1388.35 578.086 1388.02C574.175 1401.91 578.086 1421.86 580.76 1430.93C581.318 1421.96 580.869 1412.96 579.423 1404.11L579.423 1389.74C582.394 1390.6 579.968 1399.88 580.76 1404.11C583.73 1415.75 581.502 1432.37 583.384 1441.06C578.383 1437.04 581.403 1434.57 576.799 1441.38Z" fill="#F05424"/>
<path fill-rule="evenodd" clip-rule="evenodd" d="M564.916 1420.85C564.443 1414.4 565.827 1407.96 568.877 1402.4C569.174 1405.29 571.055 1405.83 571.501 1408.56C565.559 1406.85 570.065 1421.38 564.916 1420.85Z" fill="#F05424"/>
<path fill-rule="evenodd" clip-rule="evenodd" d="M574.125 1453.56C577.542 1452.54 581.651 1460.8 578.086 1463.8C578.037 1458.92 572.442 1461.76 574.125 1453.56Z" fill="#F05424"/>
<path fill-rule="evenodd" clip-rule="evenodd" d="M576.799 1636.21C578.839 1644.23 579.278 1652.62 578.087 1660.83C577.245 1654.55 574.225 1641.25 576.799 1636.21Z" fill="#F05424"/>
<path fill-rule="evenodd" clip-rule="evenodd" d="M578.036 1225.96C577.244 1225.96 576.501 1225.64 576.749 1223.92C580.066 1225.48 578.927 1209.87 581.997 1217.76C577.046 1221.46 584.373 1223.39 583.334 1228C581.106 1229.29 581.155 1234.22 579.373 1236.21C578.68 1233.26 580.957 1225.64 578.036 1225.96Z" fill="#F05424"/>
<path fill-rule="evenodd" clip-rule="evenodd" d="M586.009 1568.54C584.919 1573.9 590.019 1579.8 586.009 1582.91C584.771 1581.14 583.236 1569.82 586.009 1568.54Z" fill="#F05424"/>
<path fill-rule="evenodd" clip-rule="evenodd" d="M596.603 1004.43C592.841 1004.75 591.058 1008.18 587.345 1008.5C587.939 993.594 591.603 996.061 595.267 985.979C596.059 996.114 592.89 999.868 596.603 1004.43Z" fill="#F05424"/>
<path fill-rule="evenodd" clip-rule="evenodd" d="M597.841 1671.13C599.296 1675.01 599.758 1679.26 599.178 1683.41C595.019 1686.3 595.91 1671.12 597.841 1671.13Z" fill="#F05424"/>
<path fill-rule="evenodd" clip-rule="evenodd" d="M604.525 832.121C603.683 839.039 606.208 851.159 603.188 854.644C598.435 851.427 603.04 838.181 604.525 832.121Z" fill="#F05424"/>
<path fill-rule="evenodd" clip-rule="evenodd" d="M630.914 1900.86C635.865 1899.63 632.845 1914.38 629.577 1913.15C629.048 1909 629.509 1904.77 630.914 1900.86Z" fill="#F05424"/>
<path fill-rule="evenodd" clip-rule="evenodd" d="M636.212 1978.79C635.568 1969.56 632.003 1964.84 630.914 1956.21C635.667 1957.66 638.341 1973.37 636.212 1978.79Z" fill="#F05424"/>
<path fill-rule="evenodd" clip-rule="evenodd" d="M538.426 971.606C537.954 972.577 537.541 973.58 537.188 974.609C537.436 973.161 537.486 971.66 538.426 971.606Z" fill="#F05424"/>
<path fill-rule="evenodd" clip-rule="evenodd" d="M537.189 975.683C537.189 975.683 537.189 975.683 536.941 975.683L537.288 974.771L537.189 975.683Z" fill="#F05424"/>
<path fill-rule="evenodd" clip-rule="evenodd" d="M574.125 1334.67C574.125 1338.04 577.788 1335.79 578.085 1338.79C575.263 1344.96 576.996 1344.96 574.125 1338.79C571.797 1343.08 575.164 1346.52 572.837 1349.04C571.942 1346.71 571.59 1344.18 571.815 1341.68C572.04 1339.17 572.833 1336.76 574.125 1334.67Z" fill="#F05424"/>
<path fill-rule="evenodd" clip-rule="evenodd" d="M576.799 1180.81C582.245 1176.03 579.67 1172.66 578.086 1164.4C582.146 1162.95 580.661 1162.95 584.721 1164.4C585.018 1162.84 584.721 1160.38 586.008 1160.32L586.008 1170.56C584.127 1175.12 582.79 1167.99 582.047 1172.6C582.047 1178.29 584.077 1179.68 586.008 1176.73C586.123 1178.22 585.949 1179.72 585.497 1181.13C585.045 1182.55 584.325 1183.84 583.384 1184.94C582.988 1175.82 577.542 1186.12 576.799 1180.81Z" fill="#F05424"/>
<path fill-rule="evenodd" clip-rule="evenodd" d="M601.851 670.058C595.959 682.446 606.554 682.285 596.603 692.582C597.84 683.948 596.949 672.632 601.851 670.058Z" fill="#F05424"/>
<path fill-rule="evenodd" clip-rule="evenodd" d="M609.773 1779.83C618.586 1772.38 601.207 1761.76 609.773 1753.02C611.099 1762.05 612.868 1771 615.071 1779.83C614.278 1780.69 609.971 1784.92 609.773 1779.83Z" fill="#F05424"/>
<path fill-rule="evenodd" clip-rule="evenodd" d="M624.328 1849.54C621.605 1846 621.704 1851.1 619.031 1847.51C619.031 1845.09 618.783 1841.71 620.367 1841.34C620.665 1842.95 620.367 1845.41 621.655 1845.47C621.952 1843.86 622.794 1843.05 624.328 1843.43C622.843 1850.67 629.874 1855.12 625.616 1859.84C623.437 1854.42 620.367 1855.76 624.328 1849.54Z" fill="#F05424"/>
<path fill-rule="evenodd" clip-rule="evenodd" d="M626.954 1863.92C627.301 1868.15 632.796 1864.4 632.252 1870.08C627.548 1866.92 631.459 1877.05 628.291 1876.25C629.974 1869.98 623.736 1865.79 626.954 1863.92Z" fill="#F05424"/>
<path fill-rule="evenodd" clip-rule="evenodd" d="M638.837 1929.56C640.471 1934.38 642.105 1946.02 645.422 1941.89C644.828 1947.25 650.126 1953.53 646.759 1956.21C646.066 1945.64 635.173 1940.07 638.837 1929.56Z" fill="#F05424"/>
</svg>
